<?xml version="1.0" encoding="UTF-8" standalone="no"?>
<!-- Created with Inkscape (http://www.inkscape.org/) -->

<svg
   width="16"
   height="16"
   id="svg11300"
   version="1.0"
   style="display:inline;enable-background:new"
   viewBox="0 0 16 16"
   xmlns="http://www.w3.org/2000/svg"
   xmlns:svg="http://www.w3.org/2000/svg"
   xmlns:rdf="http://www.w3.org/1999/02/22-rdf-syntax-ns#"
   xmlns:cc="http://creativecommons.org/ns#"
   xmlns:dc="http://purl.org/dc/elements/1.1/">
  <title
     id="title4162">Adwaita Icon Template</title>
  <defs
     id="defs3" />
  <metadata
     id="metadata4">
    <rdf:RDF>
      <cc:Work
         rdf:about="">
        <dc:format>image/svg+xml</dc:format>
        <dc:type
           rdf:resource="http://purl.org/dc/dcmitype/StillImage" />
        <dc:creator>
          <cc:Agent>
            <dc:title>GNOME Design Team</dc:title>
          </cc:Agent>
        </dc:creator>
        <dc:source />
        <cc:license
           rdf:resource="http://creativecommons.org/licenses/by-sa/4.0/" />
        <dc:title>Adwaita Icon Template</dc:title>
        <dc:subject>
          <rdf:Bag />
        </dc:subject>
        <dc:date />
        <dc:rights>
          <cc:Agent>
            <dc:title />
          </cc:Agent>
        </dc:rights>
        <dc:publisher>
          <cc:Agent>
            <dc:title />
          </cc:Agent>
        </dc:publisher>
        <dc:identifier />
        <dc:relation />
        <dc:language />
        <dc:coverage />
        <dc:description />
        <dc:contributor>
          <cc:Agent>
            <dc:title />
          </cc:Agent>
        </dc:contributor>
      </cc:Work>
      <cc:License
         rdf:about="http://creativecommons.org/licenses/by-sa/4.0/">
        <cc:permits
           rdf:resource="http://creativecommons.org/ns#Reproduction" />
        <cc:permits
           rdf:resource="http://creativecommons.org/ns#Distribution" />
        <cc:requires
           rdf:resource="http://creativecommons.org/ns#Notice" />
        <cc:requires
           rdf:resource="http://creativecommons.org/ns#Attribution" />
        <cc:permits
           rdf:resource="http://creativecommons.org/ns#DerivativeWorks" />
        <cc:requires
           rdf:resource="http://creativecommons.org/ns#ShareAlike" />
      </cc:License>
    </rdf:RDF>
  </metadata>
  <g
     id="layer1"
     style="display:inline"
     transform="translate(-160,-172)">
    <g
       id="layer9"
       style="display:inline">
      <path
         id="path1237"
         style="color:#000000;display:inline;fill:#000000;stroke-width:2;enable-background:new"
         d="m 10,4 h 5 v 5 z m 0,0 M 13.300781,4.28125 8.417969,9.027344 6.003906,6.582031 0.585938,11.929688 2,13.34375 5.996094,9.417969 l 2.394531,2.425781 6.308594,-6.125 z m 0,0 m 0,0 L 8.417969,9.027344 6.003906,6.582031 0.585938,11.929688 2,13.34375 5.996094,9.417969 l 2.394531,2.425781 6.308594,-6.125 z m 0,0 M 5.99609,0.35938 V 1.2890675 C 4.5312475,1.5507852 3.6757775,2.4218816 3.6757775,3.7226612 c 0,1.063657 0.5847531,1.8125075 1.6523437,2.1230469 0.5508514,0.1299876 1.1082935,0.2225623 1.6660157,0.3164063 L 7.49609,6.250005 c 0.8046872,0.1367189 1.1171875,0.3554692 1.1171875,0.8085938 0,0.1986367 -0.089137,0.3632462 -0.2519531,0.4902342 l 0.070312,0.07031 1.8691416,-1.8164066 C 9.948532,5.1600948 9.232956,4.7386339 8.1757775,4.5664112 L 6.5039025,4.2890675 C 5.8203102,4.1718796 5.5468713,3.9726601 5.5468712,3.5703175 c 0,-0.4374996 0.4921891,-0.703125 1.3007813,-0.703125 0.8554681,0 1.6289069,0.3007819 2.4843755,0.9570313 L 10.378902,2.35938 C 9.734372,1.8398495 8.8789011,1.4687553 7.99609,1.3046925 V 0.35938 Z M 5.99414,7.996099 4.8906243,9.085942 c 0.00405,0.0017 0.00766,0.0042 0.011719,0.0059 L 6.0058589,8.007858 Z M 6.99609,-2.64062 c -4.4179602,0 -8,3.5820398 -8,8 0,1.8926705 0.65890732,3.630078 1.7578125,5 L 2.1855431,8.947271 C 1.4377292,7.946529 0.99609,6.7041053 0.99609,5.35938 c 0,-3.3124934 2.6875066,-6 6,-6 2.474029,0 4.596312,1.5014866 5.513672,3.640625 h 2.130859 C 13.63389,-0.2665164 10.592902,-2.64062 6.99609,-2.64062 Z m 6.285156,8.3359375 -0.08789,0.083984 0.0039,0.00391 0.08789,-0.083984 z M 13.175778,8.589849 8.3906212,13.236333 C 10.761107,12.819283 12.76934,11.356579 13.929684,9.343755 Z m -9.5429692,1.736328 -1.4453126,1.425781 0.00195,0.002 1.4492187,-1.421875 c -0.00225,-0.0015 -0.00361,-0.0043 -0.00586,-0.0059 z m 1.9785156,0.871094 -1.609375,1.580078 c 0.9252567,0.37394 1.9349437,0.582031 2.9941406,0.582031 0.4664323,0 0.9226221,-0.04252 1.3671875,-0.119141 L 6.4843712,11.335942 C 6.1868201,11.310762 5.8949398,11.26433 5.6113244,11.197271 Z"
         transform="translate(161.00391,174.64062)" />
    </g>
  </g>
</svg>
