<?xml version="1.0" encoding="UTF-8"?>
<svg height="128px" viewBox="0 0 128 128" width="128px" xmlns="http://www.w3.org/2000/svg" xmlns:xlink="http://www.w3.org/1999/xlink">
    <linearGradient id="a" gradientUnits="userSpaceOnUse" x1="12" x2="116" y1="114" y2="114">
        <stop offset="0" stop-color="#d5d3cf"/>
        <stop offset="0.0384615" stop-color="#e4e1de"/>
        <stop offset="0.0769231" stop-color="#d5d3cf"/>
        <stop offset="0.923077" stop-color="#d5d3cf"/>
        <stop offset="0.961538" stop-color="#e4e1de"/>
        <stop offset="1" stop-color="#d5d3cf"/>
    </linearGradient>
    <filter id="b" height="100%" width="100%" x="0%" y="0%">
        <feColorMatrix in="SourceGraphic" type="matrix" values="0 0 0 0 1 0 0 0 0 1 0 0 0 0 1 0 0 0 1 0"/>
    </filter>
    <mask id="c">
        <g filter="url(#b)">
            <rect fill-opacity="0.2" height="128" width="128"/>
        </g>
    </mask>
    <clipPath id="d">
        <rect height="152" width="192"/>
    </clipPath>
    <mask id="e">
        <g filter="url(#b)">
            <rect fill-opacity="0.2" height="128" width="128"/>
        </g>
    </mask>
    <clipPath id="f">
        <rect height="152" width="192"/>
    </clipPath>
    <linearGradient id="g" gradientUnits="userSpaceOnUse" x1="8" x2="72" y1="120" y2="120">
        <stop offset="0" stop-color="#2ec27e"/>
        <stop offset="0.03125" stop-color="#57e389"/>
        <stop offset="0.0625" stop-color="#33d17a"/>
        <stop offset="0.9375" stop-color="#33d17a"/>
        <stop offset="0.96875" stop-color="#57e389"/>
        <stop offset="1" stop-color="#2ec27e"/>
    </linearGradient>
    <mask id="h">
        <g filter="url(#b)">
            <rect fill-opacity="0.2" height="128" width="128"/>
        </g>
    </mask>
    <linearGradient id="i" gradientUnits="userSpaceOnUse">
        <stop offset="0" stop-color="#ffffff" stop-opacity="0"/>
        <stop offset="1" stop-color="#ffffff"/>
    </linearGradient>
    <linearGradient id="j" x1="16" x2="80" xlink:href="#i" y1="123" y2="123"/>
    <clipPath id="k">
        <rect height="152" width="192"/>
    </clipPath>
    <mask id="l">
        <g filter="url(#b)">
            <rect fill-opacity="0.2" height="128" width="128"/>
        </g>
    </mask>
    <linearGradient id="m" x1="16" x2="80" xlink:href="#i" y1="127" y2="127"/>
    <clipPath id="n">
        <rect height="152" width="192"/>
    </clipPath>
    <mask id="o">
        <g filter="url(#b)">
            <rect fill-opacity="0.2" height="128" width="128"/>
        </g>
    </mask>
    <linearGradient id="p" x1="16" x2="80" xlink:href="#i" y1="131" y2="131"/>
    <clipPath id="q">
        <rect height="152" width="192"/>
    </clipPath>
    <path d="m 20 16 h 88 c 4.417969 0 8 3.582031 8 8 v 84 c 0 4.417969 -3.582031 8 -8 8 h -88 c -4.417969 0 -8 -3.582031 -8 -8 v -84 c 0 -4.417969 3.582031 -8 8 -8 z m 0 0" fill="#e01b24"/>
    <path d="m 20 14 h 88 c 4.417969 0 8 3.582031 8 8 v 84 c 0 4.417969 -3.582031 8 -8 8 h -88 c -4.417969 0 -8 -3.582031 -8 -8 v -84 c 0 -4.417969 3.582031 -8 8 -8 z m 0 0" fill="url(#a)"/>
    <path d="m 20 12 h 88 c 4.417969 0 8 3.582031 8 8 v 80 c 0 4.417969 -3.582031 8 -8 8 h -88 c -4.417969 0 -8 -3.582031 -8 -8 v -80 c 0 -4.417969 3.582031 -8 8 -8 z m 0 0" fill="#f6f5f4"/>
    <g clip-path="url(#d)" mask="url(#c)" transform="matrix(1 0 0 1 -8 -16)">
        <path d="m 20 116 v 2 c 0 4.433594 3.566406 8 8 8 h 88 c 4.433594 0 8 -3.566406 8 -8 v -2 c 0 4.433594 -3.566406 8 -8 8 h -88 c -4.433594 0 -8 -3.566406 -8 -8 z m 0 0" fill="#ffffff"/>
    </g>
    <path d="m 22 16 v 88 h -2 v -88 z m 0 0" fill="#c0bfbc"/>
    <path d="m 16 98 h 92 v 2 h -92 z m 0 0" fill="#c0bfbc"/>
    <g fill="#deddda">
        <path d="m 36 22 h 2 v 70 h -2 z m 0 0"/>
        <path d="m 52 22 h 2 v 70 h -2 z m 0 0"/>
        <path d="m 68 22 h 2 v 70 h -2 z m 0 0"/>
        <path d="m 84 22 h 2 v 70 h -2 z m 0 0"/>
        <path d="m 100 22 h 2 v 70 h -2 z m 0 0"/>
    </g>
    <g clip-path="url(#f)" mask="url(#e)" transform="matrix(1 0 0 1 -8 -16)">
        <path d="m 108.019531 47.792969 s -1.355469 6.386719 -4 13.019531 c -1.324219 3.316406 -2.972656 6.683594 -4.886719 9.300781 c -1.914062 2.621094 -4.070312 4.441407 -6.335937 4.90625 c -1.285156 0.269531 -2.3125 -0.167969 -3.464844 -1.152343 c -1.15625 -0.984376 -2.304687 -2.515626 -3.476562 -4.128907 c -1.175781 -1.609375 -2.375 -3.292969 -3.785157 -4.605469 c -1.414062 -1.3125 -3.128906 -2.273437 -5.140624 -2.132812 c -2.234376 0.160156 -3.96875 1.503906 -5.328126 3.207031 c -1.359374 1.699219 -2.433593 3.796875 -3.492187 5.804688 c -1.058594 2.011719 -2.105469 3.925781 -3.246094 5.214843 c -1.144531 1.285157 -2.246093 1.929688 -3.765625 1.777344 c -1.980468 -0.195312 -3.273437 -1.503906 -4.394531 -3.691406 c -1.121094 -2.191406 -1.921875 -5.171875 -2.726563 -8.152344 c -0.804687 -2.980468 -1.601562 -5.960937 -2.902343 -8.285156 c -0.648438 -1.160156 -1.433594 -2.164062 -2.453125 -2.875 c -1.019532 -0.710938 -2.28125 -1.085938 -3.683594 -1 c -3.40625 0.214844 -6.140625 2.585938 -8.289062 5.75 c -2.144532 3.167969 -3.792969 7.21875 -5.066407 11.226562 c -2.542969 8.011719 -3.574219 15.890626 -3.574219 15.890626 l -0.007812 0.070312 v 28.0625 h 82 v -68 z m 0 0" fill="#e01b24"/>
    </g>
    <path d="m 101 32 s -5.472656 25.820312 -16 28 c -6.527344 1.351562 -9.351562 -12.472656 -16 -12 c -7.523438 0.535156 -8.496094 16.742188 -16 16 c -9.566406 -0.949219 -6.402344 -24.597656 -16 -24 c -11.902344 0.742188 -16 32 -16 32" fill="none" stroke="#e01b24" stroke-linecap="square" stroke-width="2"/>
    <path d="m 12 76 h 56 c 2.210938 0 4 1.789062 4 4 v 36 c 0 2.210938 -1.789062 4 -4 4 h -56 c -2.210938 0 -4 -1.789062 -4 -4 v -36 c 0 -2.210938 1.789062 -4 4 -4 z m 0 0" fill="url(#g)"/>
    <path d="m 12 72 h 56 c 2.210938 0 4 1.789062 4 4 v 28 c 0 2.210938 -1.789062 4 -4 4 h -56 c -2.210938 0 -4 -1.789062 -4 -4 v -28 c 0 -2.210938 1.789062 -4 4 -4 z m 0 0" fill="#57e389"/>
    <path d="m 16 76 c 0 2.210938 -1.789062 4 -4 4 v 20 c 2.210938 0 4 1.789062 4 4 h 48 c 0 -2.210938 1.789062 -4 4 -4 v -20 c -2.210938 0 -4 -1.789062 -4 -4 z m 0 0" fill="#2ec27e"/>
    <path d="m 26 84 h 28 c 1.105469 0 2 0.894531 2 2 v 8 c 0 1.105469 -0.894531 2 -2 2 h -28 c -1.105469 0 -2 -0.894531 -2 -2 v -8 c 0 -1.105469 0.894531 -2 2 -2 z m 0 0" fill="#57e389"/>
    <path d="m 50 90 c 0 5.523438 -4.476562 10 -10 10 s -10 -4.476562 -10 -10 s 4.476562 -10 10 -10 s 10 4.476562 10 10 z m 0 0" fill="#57e389"/>
    <g clip-path="url(#k)" mask="url(#h)" transform="matrix(1 0 0 1 -8 -16)">
        <path d="m 16 120 v 2 c 0 2.214844 1.785156 4 4 4 h 56 c 2.214844 0 4 -1.785156 4 -4 v -2 c 0 2.214844 -1.785156 4 -4 4 h -56 c -2.214844 0 -4 -1.785156 -4 -4 z m 0 0" fill="url(#j)"/>
    </g>
    <g clip-path="url(#n)" mask="url(#l)" transform="matrix(1 0 0 1 -8 -16)">
        <path d="m 16 124 v 2 c 0 2.214844 1.785156 4 4 4 h 56 c 2.214844 0 4 -1.785156 4 -4 v -2 c 0 2.214844 -1.785156 4 -4 4 h -56 c -2.214844 0 -4 -1.785156 -4 -4 z m 0 0" fill="url(#m)"/>
    </g>
    <g clip-path="url(#q)" mask="url(#o)" transform="matrix(1 0 0 1 -8 -16)">
        <path d="m 16 128 v 2 c 0 2.214844 1.785156 4 4 4 h 56 c 2.214844 0 4 -1.785156 4 -4 v -2 c 0 2.214844 -1.785156 4 -4 4 h -56 c -2.214844 0 -4 -1.785156 -4 -4 z m 0 0" fill="url(#p)"/>
    </g>
</svg>
